<?xml version="1.0" standalone="no"?>
<!DOCTYPE svg PUBLIC "-//W3C//DTD SVG 20010904//EN"
 "http://www.w3.org/TR/2001/REC-SVG-20010904/DTD/svg10.dtd">
<svg version="1.0" xmlns="http://www.w3.org/2000/svg"
 width="512.000000pt" height="512.000000pt" viewBox="0 0 512.000000 512.000000"
 preserveAspectRatio="xMidYMid meet">
<metadata>
Created by potrace 1.14, written by Peter Selinger 2001-2017
</metadata>
<g transform="translate(0.000000,512.000000) scale(0.100000,-0.100000)"
fill="#000000" stroke="none">
<path d="M2390 5114 c-273 -21 -586 -95 -830 -199 -206 -87 -466 -246 -640
-393 -387 -325 -676 -767 -815 -1243 -71 -244 -99 -448 -99 -719 0 -271 28
-475 99 -719 232 -800 857 -1445 1654 -1709 273 -91 495 -125 816 -126 261 0
377 13 610 71 444 111 857 345 1185 673 392 393 640 886 727 1450 14 88 18
173 17 365 0 227 -3 264 -27 399 -73 401 -189 697 -398 1010 -410 618 -1046
1016 -1789 1121 -107 15 -410 26 -510 19z m1050 -1413 l0 -479 45 -6 c121 -19
265 -87 376 -179 256 -212 349 -597 222 -914 -94 -236 -293 -408 -558 -481
-54 -15 -163 -17 -1145 -17 -1225 0 -1156 -4 -1327 79 -166 81 -296 210 -372
369 -63 131 -76 190 -75 357 0 135 2 151 31 238 90 270 303 467 579 536 l82
21 42 80 c23 44 63 109 88 145 61 87 201 224 290 283 297 198 667 254 999 150
l52 -16 67 63 c114 107 245 181 374 215 63 16 155 32 203 34 l27 1 0 -479z"/>
</g>
</svg>
